<?xml version="1.0" encoding="UTF-8" standalone="no"?>
<svg width="17px" height="16px" viewBox="0 0 17 16" version="1.1" xmlns="http://www.w3.org/2000/svg" xmlns:xlink="http://www.w3.org/1999/xlink">
    <!-- Generator: Sketch 40.1 (33804) - http://www.bohemiancoding.com/sketch -->
    <title>Group 5</title>
    <desc>Created with Sketch.</desc>
    <defs></defs>
    <g id="Page-1" stroke="none" stroke-width="1" fill="none" fill-rule="evenodd">
        <g id="Artboard-1" transform="translate(-244.000000, -215.000000)" fill="#FFFFFF">
            <g id="Group-5" transform="translate(244.000000, 215.000000)">
                <path d="M14.0507325,8.00680179 C14.0507325,11.042915 11.8615553,13.559693 8.85268601,13.9891432 C5.84381676,14.4185934 3.04486862,12.6109076 2.19518793,9.69464102 C1.34550725,6.77837441 2.74498132,3.75224845 5.51394073,2.50384665 C8.27290389,1.25544484 11.4717018,2.20423021 13.1010894,4.7609571 L14.7504696,3.71229959 C12.591281,0.326633903 8.36287008,-0.931755113 4.70424501,0.72612248 C1.04561995,2.38400007 -0.793688827,6.38887305 0.325890428,10.2339506 C1.44546968,14.0890154 5.15407597,16.4859468 9.13258082,15.9166756 C13.1010894,15.3474044 16,12.0316492 16,8.016789 L14.0507325,8.00680179 L14.0507325,8.00680179 Z" id="Shape"></path>
                <polygon id="Shape" points="16 2 12 6 17 6 17 1"></polygon>
            </g>
        </g>
    </g>
</svg>