<?xml version="1.0" encoding="UTF-8" standalone="no"?>
<svg width="5px" height="8px" viewBox="0 0 5 8" version="1.1" xmlns="http://www.w3.org/2000/svg" xmlns:xlink="http://www.w3.org/1999/xlink">
    <!-- Generator: Sketch 40 (33762) - http://www.bohemiancoding.com/sketch -->
    <title>Group 4</title>
    <desc>Created with Sketch.</desc>
    <defs></defs>
    <g id="Page-1" stroke="none" stroke-width="1" fill="none" fill-rule="evenodd">
        <g id="Artboard-1" transform="translate(-129.000000, -91.000000)" fill="#FFFFFF">
            <g id="Group-4" transform="translate(129.000000, 91.000000)">
                <path d="M0,1 C0,0.5 0.5,0 1,0 C1.5,0 2,0.5 2,1 L2,7 C2,7.5 1.5,8 1,8 C0.5,8 0,7.5 0,7 L0,1 L0,1 Z" id="Shape"></path>
                <path d="M3,1 C3,0.5 3.5,0 4,0 C4.5,0 5,0.5 5,1 L5,7 C5,7.5 4.5,8 4,8 C3.5,8 3,7.5 3,7 L3,1 L3,1 Z" id="Shape"></path>
            </g>
        </g>
    </g>
</svg>