<?xml version="1.0" encoding="iso-8859-1"?>
<!-- Generator: Adobe Illustrator 20.1.0, SVG Export Plug-In . SVG Version: 6.00 Build 0)  -->
<svg version="1.1" id="Layer_1" xmlns="http://www.w3.org/2000/svg" xmlns:xlink="http://www.w3.org/1999/xlink" x="0px" y="0px"
	 viewBox="0 0 524.868 194.769" style="enable-background:new 0 0 524.868 194.769;" xml:space="preserve">
<path style="fill:#FFFFFF;" d="M185.926,54.857c-0.17,0.548-1.071,3.496-1.529,5.996c-4.621,17.426,0.76,50.77-33.857,34.208
	c-18.511-10.867-23.084-90.73-25.993-18.149c-1.269,31.681-57.228,44.201-71.389,15.074C42.589,70.247,74.116,56.669,88.964,53.368
	c16.708-3.713,7.306-43.178-15.505-30.348c-31.133,17.51-51.939,66.414-12.631,87.682c17.233,9.453,41.305,8.572,58.51-0.345
	c25.165-13.043,35.733,12.904,64.924-1.83c-8.032,35.247-27.586,97.78-76.788,69.521C110.848,179.985-10.4,89.371,0.721,153.13
	c3.389,19.455,60.077,34.469,75.451,37.938c40.387,9.113,83.503,2.727,107.461-34.117c23.829-36.644,23.169-80.771,23.169-122.76
	C206.803,5.483,187.75,47.313,185.926,54.857z M430.014,14.661l0.059,0.227l-0.023-0.092c4.608,18.456,21.25,2.455,18.539-8.379
	c-3.491-14.002-21.95-2.239-18.557,8.236L430.014,14.661z M300.885,74.03c24.676,26.76-44.606,37.271-57.049,30.447
	c-46.79-25.317,39.442-43.704,30.102-71.68C261.763-3.67,214.021,60.886,218.691,84.64c7.948,40.427,71.286,44.619,94.257,16.153
	c8.315-13.181,7.784-25.562,1.908-39.366C304.948,38.151,199.441,103.965,300.885,74.03z M523.428,77.345
	c-11.083-33.152-38.749,32.281-54.035,24.945c-15.268-7.303-13.148-55.861-28.633-55.861c-8.037,0-31.161,89.6-43.41,28.432
	c-5.081-25.328-34.541-68.281-58.525-29.422c-2.024-10.611-8.031-16.711-18.022-18.297c-9.706,4.273,9.637,64.625,19.574,64.625
	c8.646,0,25.534-86.939,40.24-13.558c9.723,48.515,41.023,50.8,60.055,3.034C454.977,127.927,536.637,116.864,523.428,77.345z"/>
</svg>
