
<svg xmlns="http://www.w3.org/2000/svg" version="1.1" xmlns:xlink="http://www.w3.org/1999/xlink" preserveAspectRatio="none" x="0px" y="0px" width="40px" height="40px" viewBox="0 0 40 40">
<defs>
<radialGradient id="Gradient_1" gradientUnits="userSpaceOnUse" cx="0" cy="0" r="89.275" fx="0" fy="0" gradientTransform="matrix( 1, 0, 0, -1, 143.1,146) " spreadMethod="pad">
<stop  offset="49.80392156862745%" stop-color="#090D17"/>

<stop  offset="100%" stop-color="#090D17" stop-opacity="0"/>
</radialGradient>

<g id="bh3_0_Layer0_0_MEMBER_0_FILL">
<path fill="#65748D" stroke="none" d="
M 254.55 60.9
Q 270.15 77.4 277.65 93.25 251.7 28.55 188.1 14.2 168.2 9.7 146.95 10.75 140.3 11.1 134.3 11.95
L 129.65 12.75
Q 84.05 20.9 58.55 58.4 50.55 70.1 45.55 83.35 43.05 89.95 42.15 94.25 29.35 146.15 50.7 182.15 57.4 193.35 66.7 201.7 71.35 205.85 74.65 207.75 119.95 236.2 156.35 217.3 167.7 211.4 176.8 201.5 181.35 196.55 183.65 192.75 196.15 171.65 185.9 150.35 182.7 143.65 177.6 137.8
L 173.15 133.25 135.05 151.25
Q 168.2 92.65 169.65 92.25 200.75 84.5 218.8 116.6 227.85 132.65 230.65 150.25 230.95 217.05 187.1 248.55 173.4 258.4 156.9 263.55 151.75 265.2 146.95 266.15
L 143.15 266.75
Q 83.15 275.7 38.85 236.65 25 224.4 14.35 208.85 11.05 204 8.45 199.4
L 6.5 195.75
Q 18.4 234 55.2 258.45 73.6 270.7 89.65 275.25 129.8 285.45 170.5 270.15 190.85 262.45 203.15 252.75 242.05 222.55 247.5 174.65 249.2 159.65 247.35 144.7
L 245.15 132.75
Q 232.55 86.3 193.6 70.15 181.45 65.1 168.05 63.65
L 157.15 63.25
Q 104.95 65.45 90.7 108.15 86.25 121.5 86.1 137.3 86.05 145.2 86.85 150.45
L 105.1 165.4 74.65 179.75 53.65 130.25
Q 50.55 89.3 74.05 59.95 85.8 45.25 98.15 38.75 123.8 25 155.8 23.5 171.8 22.75 182.65 24.75 223.3 27.9 254.55 60.9 Z"/>
</g>

<g id="bh3_0_Layer0_0_MEMBER_1_FILL">
<path fill="#202D48" stroke="none" d="
M 198.65 92.35
Q 190.95 88 182.4 85.65
L 175.35 84.1
Q 139.8 80.65 121.05 103.8 111.65 115.5 109.15 128.6
L 162.9 116 191.15 110.25 202.9 132.25 208.65 180 195.65 206 175.4 227
Q 151.95 249.15 117.25 247.1 97.45 245.9 79.7 238 79.05 237.7 75.8 236.45 36.5 222.3 17.95 180.25 12.1 167.05 9.05 152.6 7.15 140.7 7.15 140.5 4.8 108 15.25 79.15 20.45 64.7 26.15 56.75 12.35 69.95 5.15 96.65 0.9 112.35 0.15 125.75 -1.4 155.55 12.45 186.85 19.4 202.55 26.65 212.25 47.1 239.15 83.2 252.9 101.2 259.75 115.15 261.25 147.35 264.2 178.35 246.9 193.85 238.25 202.9 229 228.55 204.45 231.8 166.8 232.8 155 231.45 143.3
L 229.9 134
Q 223.3 106.15 198.65 92.35 Z"/>
</g>

<g id="bh3_0_Layer0_0_MEMBER_2_FILL">
<path fill="#202D48" stroke="none" d="
M 162.4 41
Q 176.65 41.55 190.5 45.25 234.8 57.15 258.4 96.5
L 261.25 100.9
Q 264.7 106.65 267.55 113.35 276.6 134.8 276.2 157.8
L 276.2 160.65
Q 276.3 172 273.85 185.75 269.6 209.85 258.9 230.5 266.6 222.95 273.8 208.5 288.25 179.65 285.9 145.25 285.7 139.95 284.2 131.6 281.2 114.9 274.65 99.8 253.65 51.35 204.9 36.5 191.95 32.05 173.45 30.4 136.45 27 108.65 40.75 97.4 45.15 84.95 55.45 60.1 76.15 54.15 106
L 52.9 114.15
Q 51.7 124.25 52.2 134.15 53.85 165.75 71.65 183.25
L 74.85 186.35
Q 79.2 190.05 84.7 193.35 102.3 203.9 125 206 139.45 207.45 151.45 201.05 169.65 191.35 172.9 170.25
L 121.65 191.75 95.65 177 76.9 137.25 82.65 107.5 92.65 82 134.4 52.5
Q 120.95 60.5 107.55 68.4 80.75 84.2 80.9 83.75 86.65 73.45 98.2 63.25 121.15 43 150.9 41.25
L 162.4 41 Z"/>
</g>

<g id="bh3_0_Layer0_0_MEMBER_3_FILL">
<path fill="#090D17" stroke="none" d="
M 249.75 94.35
L 244.95 87.45
Q 222.25 58.85 185.8 49.2 174.4 46.15 163 45.4
L 153.9 45.25
Q 124.85 46.35 100.5 63.85 88.35 72.6 82 81.1 66.85 102.8 66.75 129.6 66.7 142.95 69.65 152 79.35 183.25 109.85 192.65 125.1 197.3 138.4 195.75 164.95 192 174.3 168.45 177.2 161.1 178.05 152.65
L 178.3 145.65
Q 178.2 141.05 176.35 135.55 174.7 130.65 172.15 126.45 183.2 128.95 190.4 137.85 194 142.3 195.4 146.25 202.55 163.65 198.2 182.45 196 191.85 192.4 197.75 186.75 208.1 174.05 217.05 162.4 225.15 149.3 229.25 134.15 234 117.9 232.65 101.85 231.3 87.45 224.15 67.35 214.2 51.2 195.5 40.95 183.7 34.8 169.2 28.65 154.8 27.2 139.15 24.85 113.45 32.5 87.65 36.35 74.75 40.65 67 59.55 29.95 101 11.3 121.7 1.95 138.65 0 100.85 0.7 69.6 21.45 53.95 31.8 45.9 42 39.25 49.8 33.85 58.6 19.05 82.8 15.3 108.65 11.4 135.65 19.65 163.95 22.7 174.4 26.55 182.75 28.5 186.9 29.8 189 48.85 218.95 77.55 234.2 91.9 241.85 102.4 243.5 136.55 250.45 166.5 238.05 181.5 231.85 189.65 224.25 212.45 204.8 217.2 173.95 218.7 164.3 218.2 154.7
L 217.4 147
Q 214.7 127.75 202 114.35 192.55 104.45 178.5 98.6 170.05 95.05 161.2 94.25 152.05 93.4 143.45 95.6 126.55 99.9 116.75 112.3 109.15 121.9 107.15 133.95 106.35 140.35 107.7 148.15 109.4 157.95 114 164.05 93.25 157.5 88.2 136.95 85.3 125.35 87.85 110.1 87.95 109.2 88.3 107.9 88.85 105.9 88.9 105.7 92.65 90.45 105.1 78.45 112.65 71.15 122.3 66.3 131.65 61.55 142.3 59.5 170.25 54.05 197.1 64.7 211.9 70.55 221.95 78.9 222.25 79.1 222.75 79.6 256.45 112.05 260.3 154.7 262.45 177.95 256.15 196.8
L 255.6 198.65
Q 241.25 245.65 190 273.55 174 282.25 156.25 288
L 141.65 292
Q 181.95 287.95 213.2 267.7 227.2 258.65 240.9 244 257.45 225.7 265.3 199.05 267.8 190.7 269.1 182.5
L 269.9 176
Q 273.8 145.05 259.75 113.15 255.4 103.2 249.75 94.35 Z"/>
</g>

<g id="bh3_0_Layer0_1_FILL">
<path fill="url(#Gradient_1)" stroke="none" d="
M 206.25 82.9
Q 193.9 70.55 177.85 63.75 161.25 56.75 143.1 56.75 124.95 56.75 108.35 63.75 92.35 70.55 80 82.9 67.65 95.25 60.85 111.25 53.85 127.85 53.85 146 53.85 164.15 60.85 180.75 67.65 196.8 80 209.15 92.35 221.5 108.35 228.3 124.95 235.3 143.1 235.3 161.25 235.3 177.85 228.3 193.85 221.5 206.25 209.15 218.6 196.75 225.4 180.75 232.4 164.15 232.4 146 232.4 127.85 225.4 111.25 218.6 95.25 206.25 82.9 Z"/>
</g>
</defs>

<g transform="matrix( 0.1369476318359375, 0, 0, 0.136993408203125, 0.4,0) ">
<g transform="matrix( 1, 0, 0, 1, 0,0) ">
<use xlink:href="#bh3_0_Layer0_0_MEMBER_0_FILL"/>
</g>

<g transform="matrix( 1, 0, 0, 1, 0,0) ">
<use xlink:href="#bh3_0_Layer0_0_MEMBER_1_FILL"/>
</g>

<g transform="matrix( 1, 0, 0, 1, 0,0) ">
<use xlink:href="#bh3_0_Layer0_0_MEMBER_2_FILL"/>
</g>

<g transform="matrix( 1, 0, 0, 1, 0,0) ">
<use xlink:href="#bh3_0_Layer0_0_MEMBER_3_FILL"/>
</g>

<g transform="matrix( 1, 0, 0, 1, 0,0) ">
<use xlink:href="#bh3_0_Layer0_1_FILL"/>
</g>
</g>
</svg>
