
<svg xmlns="http://www.w3.org/2000/svg" version="1.1" xmlns:xlink="http://www.w3.org/1999/xlink" preserveAspectRatio="none" x="0px" y="0px" width="40px" height="40px" viewBox="0 0 40 40">
<defs>
<g id="Star_0_Layer0_0_FILL">
<path fill="#FFDF4A" stroke="none" d="
M -12.4 19
L -12.35 19 0.05 0.15
Q -4.1 2.35 -8.2 4.55
L -8.1 4.65 -12.4 19
M -20 -4.55
L -19.95 -4.5 -0.05 0 -5.05 -4.9 -20 -4.55
M 12.4 19.05
L 0.05 0.15 0.05 10.65 12.4 19.05
M 8.15 4.65
L 8.1 4.55 20.05 -4.5 0.05 0.05 8.15 4.65
M 0.05 -19.05
L 0 -18.9 0 0 0.05 0.05 5.1 -4.9 5.05 -4.9 0.05 -19.05 Z"/>

<path fill="#F1BC14" stroke="none" d="
M 0.05 10.65
L 0.05 0.15 -12.35 19 0 10.6 0.05 10.65
M 0.05 0.05
L 0 0 0 -18.9 -5.05 -4.9 -0.05 0 -19.95 -4.5 -8.2 4.55
Q -4.1 2.35 0.05 0.15
L 12.4 19.05 8.15 4.65 0.05 0.05
M 20.05 -4.5
L 5.1 -4.9 0.05 0.05 20.05 -4.5 Z"/>
</g>
</defs>

<g transform="matrix( 0.998748779296875, 0, 0, 0.998687744140625, 20,20) ">
<g transform="matrix( 1, 0, 0, 1, 0,0) ">
<use xlink:href="#Star_0_Layer0_0_FILL"/>
</g>
</g>
</svg>
